<?xml version="1.0" standalone="no"?>
<!DOCTYPE svg PUBLIC "-//W3C//DTD SVG 20010904//EN"
 "http://www.w3.org/TR/2001/REC-SVG-20010904/DTD/svg10.dtd">
<svg version="1.0" xmlns="http://www.w3.org/2000/svg"
 width="100.000000pt" height="100.000000pt" viewBox="0 0 100.000000 100.000000"
 preserveAspectRatio="xMidYMid meet">
<metadata>
Created by potrace 1.14, written by Peter Selinger 2001-2017
</metadata>
<g transform="translate(0.000000,100.000000) scale(0.100000,-0.100000)"
fill="#000000" stroke="none">
<path d="M375 961 c-86 -25 -141 -56 -203 -114 -93 -88 -142 -194 -148 -321
-14 -284 214 -516 495 -502 99 6 113 9 197 50 47 24 89 55 128 96 32 33 62 58
67 55 5 -4 6 1 3 9 -3 9 -1 16 4 16 6 0 11 8 11 18 0 9 10 44 22 77 28 76 33
206 12 279 -46 156 -160 276 -317 333 -63 23 -200 25 -271 4z"/>
</g>
</svg>
